HIERARCHY
ROOT Hips
{
  OFFSET 1.44925e-005 102.336 -0.101585
  CHANNELS 6 Xposition Yposition Zposition Zrotation Xrotation Yrotation
  JOINT LeftUpLeg
  {
    OFFSET 8.9458 -8.66707 0.101652
    CHANNELS 3 Zrotation Xrotation Yrotation
    JOINT LeftLeg
    {
      OFFSET 0 -44.4227 1.3727
      CHANNELS 3 Zrotation Xrotation Yrotation
      JOINT LeftFoot
      {
        OFFSET -0.253549 -42.0924 -1.46059
        CHANNELS 3 Zrotation Xrotation Yrotation
        JOINT LeftToes
        {
          OFFSET -0.04 -4.41509 8.4991
          CHANNELS 3 Zrotation Xrotation Yrotation
          End Site
          {
            OFFSET 0.08 -0.047448 9.77979
          }
        }
      }
    }
  }
  JOINT Spine
  {
    OFFSET 0 11.8905 0
    CHANNELS 3 Zrotation Xrotation Yrotation
    JOINT Spine1
    {
      OFFSET 0 25.6574 0.127663
      CHANNELS 3 Zrotation Xrotation Yrotation
      JOINT RightShoulder
      {
        OFFSET -8.99 -0.362252 -0.22
        CHANNELS 3 Zrotation Xrotation Yrotation
        JOINT RightArm
        {
          OFFSET -10.2827 -0.00338 0.322123
          CHANNELS 3 Zrotation Xrotation Yrotation
          JOINT RightForeArm
          {
            OFFSET -26.364 0.099144 -1.42434
            CHANNELS 3 Zrotation Xrotation Yrotation
            JOINT RightHand
            {
              OFFSET -22.0324 0.085362 1.02216
              CHANNELS 3 Zrotation Xrotation Yrotation
              End Site
              {
                OFFSET -13.3284 -0.6 1.50291
              }
            }
          }
        }
      }
      JOINT LeftShoulder1
      {
        OFFSET 8.99 -0.362252 -0.22
        CHANNELS 3 Zrotation Xrotation Yrotation
        JOINT LeftArm
        {
          OFFSET 10.2827 -0.00337999 0.322123
          CHANNELS 3 Zrotation Xrotation Yrotation
          JOINT LeftForeArm
          {
            OFFSET 26.2597 0.099144 -1.42434
            CHANNELS 3 Zrotation Xrotation Yrotation
            JOINT LeftHand
            {
              OFFSET 22.0902 0.085362 1.02216
              CHANNELS 3 Zrotation Xrotation Yrotation
              End Site
              {
                OFFSET 13.419 -0.6 1.50291
              }
            }
          }
        }
      }
      JOINT Head
      {
        OFFSET 0 8.73416 0.011341
        CHANNELS 3 Zrotation Xrotation Yrotation
        End Site
        {
          OFFSET -0.29 12.7742 2.51395
        }
      }
    }
  }
  JOINT RightUpLeg
  {
    OFFSET -8.9458 -8.66707 0.101652
    CHANNELS 3 Zrotation Xrotation Yrotation
    JOINT RightLeg
    {
      OFFSET 0 -44.4227 1.3727
      CHANNELS 3 Zrotation Xrotation Yrotation
      JOINT RightFoot
      {
        OFFSET 0.253549 -42.0924 -1.46059
        CHANNELS 3 Zrotation Xrotation Yrotation
        JOINT RightToes
        {
          OFFSET 0.04 -4.41509 8.4991
          CHANNELS 3 Zrotation Xrotation Yrotation
          End Site
          {
            OFFSET -0.08 -0.137448 9.77979
          }
        }
      }
    }
  }
}
MOTION
Frames:	19
Frame Time:	0.0333333
-150.673 101.799 -2.57515 -3.64762 -0.271355 -90.4494 -1.31733 1.69246 1.30371 0.668365 9.58697 13.3151 -1.7451 -11.9813 -0.0142096 -1.31915e-009 8.75233e-006 -1.46406e-008 -0.55113 7.2778 -0.31624 1.11877 -4.25953 -0.419181 36.9473 1.7693 0.0862534 41.7715 -18.3055 5.38035 8.42217 40.8534 7.30088 -6.97071 9.61497 -0.193853 -44.1908 3.53571 -3.45169 -28.5893 -12.1974 2.21027 -5.27317 36.7302 -13.6281 5.82328 9.61819 -0.917488 0.584531 -5.91377 -1.67166 1.81326 0.902249 -2.451 0.28891 9.80886 -11.8552 0.231699 -12.0388 -0.188713 0.0462048 0.000530889 0.662642 
-150.666 101.799 -2.56473 -3.65544 -0.292973 -90.4922 -1.35495 1.7103 1.28215 0.671536 9.56666 13.3881 -1.78337 -11.9621 -0.0142086 -1.31915e-009 8.75233e-006 -1.46406e-008 -0.461254 7.21956 -0.328521 0.905698 -4.25025 -0.396105 37.1799 1.7693 0.0857399 41.5932 -18.2224 5.37604 8.46451 40.8317 7.26814 -6.97102 9.61672 -0.168196 -43.9554 3.50579 -3.4281 -28.7664 -12.7615 2.11386 -5.51422 37.2222 -13.218 5.82328 9.61819 -0.917488 0.609638 -5.89061 -1.66161 1.77802 0.888315 -2.47388 0.285559 9.84558 -11.7715 0.192432 -12.0327 -0.188708 0.0462048 0.000530889 0.662642 
-150.651 101.799 -2.54637 -3.66393 -0.28913 -90.5555 -1.36906 1.70995 1.28016 0.671794 9.58131 13.4581 -1.79854 -11.9627 -0.0142086 -1.31915e-009 8.75233e-006 -1.46406e-008 -0.332348 7.12824 -0.342212 0.699132 -4.24104 -0.375519 37.2991 1.7693 0.0906921 41.5058 -18.1433 5.37448 8.51034 40.7917 7.22614 -6.87301 9.62785 -0.3173 -43.8146 3.48415 -3.40643 -28.8897 -13.233 2.02972 -5.68613 37.787 -12.8823 5.82328 9.61819 -0.917488 0.535569 -5.90539 -1.55612 1.76398 0.87562 -2.47936 0.286063 9.86499 -11.7001 0.191727 -12.0212 -0.1887 0.0462048 0.000530889 0.662642 
-150.636 101.799 -2.5318 -3.69319 -0.248888 -90.6022 -1.33466 1.71088 1.31647 0.666494 9.6368 13.4659 -1.76208 -11.9939 -0.0142103 -1.31915e-009 8.75233e-006 -1.46406e-008 -0.3072 7.0394 -0.333957 0.769327 -4.15057 -0.378712 37.0099 1.7693 0.117429 41.7618 -18.2012 5.40372 8.50825 40.7106 7.21871 -6.81846 9.64886 -0.686461 -44.0367 3.50528 -3.41489 -28.8027 -13.0407 2.01643 -5.5336 37.867 -13.0607 5.82328 9.61819 -0.917488 0.333401 -5.99796 -1.38372 1.79303 0.907379 -2.46131 0.292259 9.83489 -11.6921 0.261777 -12.0122 -0.188694 0.0462048 0.000530889 0.662642 
-150.619 101.798 -2.52623 -3.75573 -0.223296 -90.6193 -1.3084 1.74848 1.34879 0.661978 9.68263 13.4483 -1.7258 -12.0208 -0.0142117 -1.31915e-009 8.75233e-006 -1.46406e-008 -0.345822 7.00681 -0.325231 0.891323 -4.03528 -0.389749 36.6889 1.7693 0.137245 42.0609 -18.313 5.4359 8.46684 40.6667 7.25037 -6.96835 9.6547 -0.920835 -44.259 3.53157 -3.43339 -28.7778 -12.7847 2.01763 -5.28702 37.7713 -13.3758 5.82328 9.61819 -0.917488 0.207459 -6.06569 -1.29443 1.81114 0.96968 -2.4653 0.300818 9.81986 -11.689 0.322061 -12.0237 -0.188702 0.0462048 0.000530889 0.662642 
-150.594 101.794 -2.5238 -3.82001 -0.241805 -90.6126 -1.33008 1.79373 1.34082 0.66114 9.69978 13.4495 -1.73044 -12.0245 -0.0142119 -1.31915e-009 8.75233e-006 -1.46406e-008 -0.320451 7.05348 -0.347802 0.766746 -4.02875 -0.391543 36.7496 1.7693 0.122664 42.0297 -18.3615 5.43789 8.42209 40.8515 7.26975 -7.15405 9.63747 -0.72945 -44.1352 3.52138 -3.43187 -29.0192 -13.06 1.99858 -5.20498 37.9284 -13.4051 5.82328 9.61819 -0.917488 0.291038 -6.03547 -1.33221 1.77973 0.9978 -2.51351 0.31368 9.87534 -11.6498 0.303475 -12.0535 -0.188603 0.0462048 0.000530889 0.662642 
-150.557 101.788 -2.51786 -3.84752 -0.271614 -90.5971 -1.36541 1.79113 1.31282 0.657527 9.71886 13.4607 -1.75461 -12.0276 -0.0142121 -1.31915e-009 8.75233e-006 -1.46406e-008 -0.244354 7.10909 -0.38442 0.532522 -4.09573 -0.390466 36.9991 1.76794 0.0912671 41.7976 -18.4121 5.43773 8.38342 41.2633 7.24211 -7.04008 9.62384 -0.379238 -43.9171 3.498 -3.41861 -29.2996 -13.5198 1.97304 -5.21149 38.1493 -13.3071 5.82328 9.61819 -0.917488 0.443408 -5.98737 -1.41245 1.73107 0.967722 -2.56894 0.331449 9.95657 -11.6061 0.255904 -12.0713 -0.188208 0.0462048 0.000530889 0.662642 
-150.516 101.784 -2.50915 -3.84235 -0.272329 -90.5938 -1.36623 1.73692 1.30277 0.650717 9.76688 13.4593 -1.76537 -12.0493 -0.0142132 -1.31915e-009 8.75233e-006 -1.46406e-008 -0.203868 7.09927 -0.395509 0.461679 -4.09935 -0.3866 37.0469 1.76359 0.0760627 41.7207 -18.5782 5.46029 8.34567 41.6195 7.19382 -6.6255 9.63899 -0.325264 -43.9724 3.50149 -3.41551 -29.3477 -13.6624 1.93133 -5.15643 38.1774 -13.3468 5.82328 9.61819 -0.917488 0.487277 -5.99645 -1.50651 1.71632 0.922085 -2.58505 0.345791 9.9866 -11.5985 0.274381 -12.0577 -0.18789 0.0462048 0.000530889 0.662642 
-150.473 101.783 -2.49921 -3.83149 -0.243058 -90.6074 -1.33787 1.66315 1.31101 0.649939 9.84121 13.4581 -1.77097 -12.0746 -0.0142146 -1.31915e-009 8.75233e-006 -1.46406e-008 -0.160314 7.05653 -0.386098 0.460508 -4.05919 -0.376239 36.9569 1.76099 0.0803632 41.8054 -18.8212 5.46652 8.33394 41.7679 7.13363 -6.30472 9.6619 -0.515931 -44.1478 3.51728 -3.41322 -29.2831 -13.6689 1.85598 -5.11998 38.2638 -13.3721 5.82328 9.61819 -0.917488 0.462228 -5.99859 -1.62744 1.73709 0.890757 -2.56254 0.352526 9.96668 -11.6181 0.343108 -12.0236 -0.187635 0.0462048 0.000530889 0.662642 
-150.427 101.783 -2.48713 -3.82052 -0.207362 -90.629 -1.31006 1.57927 1.3174 0.656906 9.9304 13.4703 -1.79515 -12.0881 -0.0142153 -1.31915e-009 8.75233e-006 -1.46406e-008 -0.0610026 7.05141 -0.38662 0.349578 -4.08675 -0.358732 36.9685 1.75869 0.0878346 41.8455 -19.0345 5.43632 8.36649 41.9466 7.02417 -6.34385 9.6601 -0.514644 -44.1432 3.51497 -3.41254 -29.3312 -13.792 1.78956 -5.19075 38.5578 -13.2297 5.82328 9.61819 -0.917488 0.468112 -5.944 -1.69317 1.76345 0.851355 -2.53237 0.359501 9.95413 -11.6405 0.353658 -11.9838 -0.187431 0.0462048 0.000530889 0.662642 
-150.374 101.782 -2.4767 -3.806 -0.181477 -90.6458 -1.28689 1.48759 1.32106 0.659031 10.0223 13.4731 -1.83741 -12.1036 -0.0142161 -1.31915e-009 8.75233e-006 -1.46406e-008 -0.0167713 7.06594 -0.389872 0.299754 -4.12904 -0.355176 36.9738 1.75669 0.0928055 41.8655 -19.182 5.42736 8.39521 42.3426 6.89427 -6.53926 9.63904 -0.244679 -44.0969 3.51003 -3.41561 -29.4158 -13.7927 1.7692 -5.24327 38.6711 -13.1516 5.82328 9.61819 -0.917488 0.456041 -5.9367 -1.64469 1.7849 0.791737 -2.50799 0.367835 9.97101 -11.6655 0.284532 -11.946 -0.18726 0.0462048 0.000530889 0.662642 
-150.323 101.782 -2.47242 -3.80268 -0.166613 -90.6396 -1.26488 1.41477 1.32671 0.653204 10.1003 13.4496 -1.88049 -12.1322 -0.0142176 -1.31915e-009 8.75233e-006 -1.46406e-008 -0.115943 7.03455 -0.3695 0.490098 -4.04224 -0.366973 36.794 1.75501 0.100803 41.9921 -19.2436 5.46985 8.36965 42.6624 6.85634 -6.60855 9.62771 -0.0742068 -44.2544 3.52754 -3.42613 -29.3701 -13.5427 1.73613 -5.1782 38.4099 -13.2973 5.82328 9.61819 -0.917488 0.364185 -6.0675 -1.60286 1.80377 0.743344 -2.4868 0.367633 9.99496 -11.6942 0.243224 -11.9255 -0.18711 0.0462048 0.000530889 0.662642 
-150.278 101.781 -2.46642 -3.81751 -0.161694 -90.6084 -1.26026 1.3704 1.32012 0.656386 10.161 13.4239 -1.91184 -12.1541 -0.0142188 -1.31915e-009 8.75233e-006 -1.46406e-008 -0.21613 6.95653 -0.339927 0.684465 -3.85577 -0.369463 36.5991 1.75367 0.10893 42.1356 -19.1844 5.50843 8.34469 42.5423 6.91687 -6.64035 9.63003 -0.151428 -44.4498 3.54788 -3.43681 -29.2798 -13.3281 1.63495 -5.11632 38.1361 -13.4405 5.82328 9.61819 -0.917488 0.286311 -6.22727 -1.65595 1.80631 0.724742 -2.48012 0.36687 10.0056 -11.7133 0.285925 -11.9294 -0.186965 0.0462048 0.000530889 0.662642 
-150.234 101.78 -2.44619 -3.82483 -0.162506 -90.5593 -1.28288 1.3162 1.28783 0.678813 10.2192 13.4135 -1.92507 -12.1483 -0.0142185 -1.31915e-009 8.75233e-006 -1.46406e-008 -0.183944 6.87743 -0.336862 0.64738 -3.71853 -0.361066 36.5842 1.7527 0.111744 42.1728 -19.0672 5.51645 8.42039 42.13 6.91718 -6.87989 9.62224 -0.212846 -44.4356 3.54464 -3.43258 -29.2967 -13.2157 1.5439 -5.13215 38.0244 -13.4573 5.82328 9.61819 -0.917488 0.308168 -6.25566 -1.65606 1.78014 0.705881 -2.50294 0.390291 10.0029 -11.7282 0.326079 -11.9316 -0.186782 0.0462048 0.000530889 0.662642 
-150.185 101.779 -2.41529 -3.80786 -0.166941 -90.4882 -1.31884 1.23239 1.23532 0.708321 10.2725 13.3983 -1.92346 -12.123 -0.0142171 -1.31915e-009 8.75233e-006 -1.46406e-008 -0.161725 6.8153 -0.356757 0.617821 -3.65841 -0.377983 36.5874 1.7521 0.114896 42.2075 -19.0418 5.54638 8.56152 41.8777 6.78574 -7.25142 9.5999 -0.105996 -44.3629 3.53675 -3.42801 -29.3463 -12.9943 1.56446 -5.09857 37.84 -13.548 5.82328 9.61819 -0.917488 0.32039 -6.1839 -1.4977 1.73775 0.655523 -2.54645 0.433961 10.0112 -11.765 0.297848 -11.9094 -0.186525 0.0462048 0.000530889 0.662642 
-150.129 101.778 -2.38663 -3.79623 -0.181864 -90.395 -1.36155 1.16703 1.17052 0.733599 10.2906 13.3723 -1.92305 -12.0943 -0.0142156 -1.31915e-009 8.75233e-006 -1.46406e-008 -0.315697 6.77545 -0.368395 0.870238 -3.60481 -0.432454 36.4368 1.7519 0.126217 42.3379 -19.1335 5.60655 8.62335 41.8984 6.6774 -7.41256 9.58868 -0.0357606 -44.4604 3.55019 -3.43973 -29.2964 -12.8396 1.64127 -4.99154 37.6441 -13.7129 5.82328 9.61819 -0.917488 0.199492 -6.15198 -1.36922 1.69237 0.587408 -2.59342 0.463838 10.067 -11.8142 0.268212 -11.8869 -0.186186 0.0462048 0.000530889 0.662642 
-150.075 101.776 -2.3575 -3.82506 -0.206517 -90.3058 -1.41851 1.16373 1.10243 0.758287 10.2714 13.3632 -1.92222 -12.065 -0.014214 -1.31915e-009 8.75233e-006 -1.46406e-008 -0.507158 6.77069 -0.366876 1.17355 -3.54961 -0.479684 36.3065 1.75211 0.13952 42.4236 -19.2016 5.62424 8.55647 41.9536 6.7359 -7.22087 9.6029 -0.136599 -44.5881 3.56856 -3.45649 -29.2031 -13.0648 1.65137 -5.02206 37.7257 -13.6402 5.82328 9.61819 -0.917488 0.0547921 -6.15167 -1.43807 1.63789 0.546187 -2.64503 0.473876 10.1554 -11.8314 0.29169 -11.8915 -0.185763 0.0462048 0.000530889 0.662642 
-150.024 101.773 -2.31377 -3.88577 -0.224063 -90.2413 -1.47657 1.18848 1.05751 0.779848 10.2708 13.3621 -1.90759 -12.0386 -0.0142126 -1.31915e-009 8.75233e-006 -1.46406e-008 -0.505105 6.78766 -0.368604 1.17487 -3.51675 -0.480422 36.3656 1.75276 0.141691 42.3508 -19.1549 5.5833 8.46562 41.9223 6.87586 -6.88453 9.62242 -0.218815 -44.5426 3.56737 -3.46136 -29.1664 -13.2897 1.61981 -5.23925 37.8151 -13.3621 5.82328 9.61819 -0.917488 0.0706942 -6.05973 -1.5505 1.57728 0.560914 -2.70033 0.491227 10.1988 -11.8228 0.305887 -11.899 -0.185217 0.0462048 0.000530889 0.662642 
-149.97 101.77 -2.2542 -3.9471 -0.228526 -90.1752 -1.51712 1.18601 1.04755 0.783103 10.3227 13.3199 -1.82747 -12.0173 -0.0128445 -1.31915e-009 8.75233e-006 -1.46406e-008 -0.358487 6.79814 -0.371434 0.976624 -3.47914 -0.455031 36.4594 1.75385 0.131219 42.2512 -19.0571 5.56269 8.43702 41.8818 6.95237 -6.68527 9.62712 -0.134359 -44.4539 3.55881 -3.45916 -29.1408 -12.9034 1.67964 -5.32613 37.4091 -13.3756 5.82328 9.61819 -0.917488 0.198573 -5.89914 -1.5561 1.527 0.599528 -2.74074 0.514037 10.1932 -11.855 0.279858 -11.8849 -0.184507 0.0462048 0.000530889 0.662642 
